<svg width="400" height="30" viewBox="0 0 400 30" fill="none" xmlns="http://www.w3.org/2000/svg">
<rect width="400" height="30" fill="black" fill-opacity="0.5"/>
<g filter="url(#filter0_d_13882_123)">
<path d="M198.256 18.4V11.6H199.646C201.486 11.6 202.336 12.65 202.336 14.13C202.336 15.56 201.486 16.65 199.646 16.65H198.666V18.4H198.256ZM198.666 16.29H199.606C201.316 16.29 201.916 15.33 201.916 14.13C201.916 12.92 201.316 11.96 199.606 11.96H198.666V16.29ZM210.038 18.48C208.118 18.48 206.558 17.07 206.558 15C206.558 12.93 208.118 11.52 210.038 11.52C211.958 11.52 213.518 12.93 213.518 15C213.518 17.07 211.958 18.48 210.038 18.48ZM210.038 18.11C211.788 18.11 213.098 16.78 213.098 15C213.098 13.22 211.788 11.89 210.038 11.89C208.288 11.89 206.978 13.22 206.978 15C206.978 16.78 208.288 18.11 210.038 18.11ZM219.477 18.48L217.347 11.6H217.787L219.447 17.07C219.507 17.26 219.557 17.57 219.557 17.57C219.557 17.57 219.617 17.26 219.687 17.07L221.637 11.52H221.757L223.707 17.07C223.777 17.26 223.827 17.57 223.827 17.57C223.827 17.57 223.887 17.26 223.947 17.07L225.607 11.6H226.027L223.897 18.48H223.787L221.807 12.84C221.737 12.63 221.697 12.33 221.697 12.33C221.697 12.33 221.647 12.63 221.577 12.84L219.587 18.48H219.477ZM230.469 18.4V11.6H234.439V11.96H230.879V15.6H234.069V15.96H230.879V18.04H234.579V18.4H230.469ZM241.822 16.33L243.332 18.4H242.842L241.422 16.46C241.172 16.52 240.882 16.55 240.572 16.55H239.612V18.4H239.202V11.6H240.572C242.412 11.6 243.282 12.7 243.282 14.08C243.282 15.08 242.812 15.94 241.822 16.33ZM239.612 16.19H240.532C242.252 16.19 242.862 15.2 242.862 14.08C242.862 12.96 242.252 11.96 240.532 11.96H239.612V16.19ZM248.08 18.4V11.6H252.05V11.96H248.49V15.6H251.68V15.96H248.49V18.04H252.19V18.4H248.08ZM256.813 18.4V11.6H258.263C260.613 11.6 261.983 12.91 261.983 15C261.983 17.09 260.623 18.4 258.263 18.4H256.813ZM257.223 18.03H258.213C260.463 18.03 261.553 16.78 261.553 15C261.553 13.22 260.463 11.97 258.213 11.97H257.223V18.03ZM272.022 18.4V11.6H274.182C275.452 11.6 276.002 12.32 276.002 13.23C276.002 13.91 275.742 14.43 275.162 14.63C276.012 14.83 276.572 15.53 276.572 16.45C276.572 17.54 275.942 18.4 274.482 18.4H272.022ZM272.432 14.5H274.322C275.282 14.5 275.592 13.96 275.592 13.23C275.592 12.51 275.222 11.96 274.142 11.96H272.432V14.5ZM272.432 18.04H274.432C275.702 18.04 276.162 17.35 276.162 16.45C276.162 15.54 275.642 14.86 274.422 14.86H272.432V18.04ZM282.832 18.4V16.28L280.262 11.6H280.722L282.892 15.54C282.982 15.7 283.052 15.95 283.052 15.95C283.052 15.95 283.142 15.7 283.232 15.54L285.392 11.6H285.822L283.252 16.29V18.4H282.832Z" fill="white"/>
</g>
<g filter="url(#filter1_d_13882_123)">
<path d="M297.822 18.405V11.535H297.932L301.282 15.215L304.582 11.535H304.702V18.405H303.352V15.855C303.352 15.395 303.402 14.665 303.402 14.665C303.402 14.665 302.992 15.265 302.672 15.625L301.322 17.135H301.192L299.842 15.625C299.522 15.265 299.112 14.665 299.112 14.665C299.112 14.665 299.162 15.395 299.162 15.855V18.405H297.822ZM309.153 18.405V11.605H310.553V18.405H309.153ZM320.444 18.465L317.014 15.245C316.674 14.925 316.204 14.315 316.204 14.315C316.204 14.315 316.304 15.065 316.304 15.555V18.405H314.994V11.545H315.134L318.564 14.765C318.894 15.075 319.364 15.695 319.364 15.695C319.364 15.695 319.274 14.925 319.274 14.455V11.605H320.584V18.465H320.444ZM325.036 18.405V11.605H326.436V18.405H325.036ZM330.877 18.405V11.535H330.987L334.337 15.215L337.637 11.535H337.757V18.405H336.407V15.855C336.407 15.395 336.457 14.665 336.457 14.665C336.457 14.665 336.047 15.265 335.727 15.625L334.377 17.135H334.247L332.897 15.625C332.577 15.265 332.167 14.665 332.167 14.665C332.167 14.665 332.217 15.395 332.217 15.855V18.405H330.877ZM341.678 18.405L344.668 11.545H344.788L347.898 18.405H346.428L346.108 17.635H343.348L343.028 18.405H341.678ZM343.818 16.465H345.608L345.118 15.285C344.918 14.805 344.708 14.065 344.708 14.065C344.708 14.065 344.508 14.805 344.308 15.285L343.818 16.465ZM351.819 18.405V11.605H353.219V17.175H356.299V18.405H351.819ZM359.924 18.405L362.914 11.545H363.034L366.144 18.405H364.674L364.354 17.635H361.594L361.274 18.405H359.924ZM362.064 16.465H363.854L363.364 15.285C363.164 14.805 362.954 14.065 362.954 14.065C362.954 14.065 362.754 14.805 362.554 15.285L362.064 16.465ZM373.675 16.285L375.085 18.405H373.465L372.345 16.685C372.215 16.705 372.075 16.715 371.945 16.715H371.465V18.405H370.065V11.605H371.945C373.845 11.605 374.985 12.515 374.985 14.175C374.985 15.235 374.515 15.905 373.675 16.285ZM371.465 15.495H371.905C373.045 15.495 373.545 15.135 373.545 14.175C373.545 13.215 373.025 12.835 371.905 12.835H371.465V15.495ZM380.66 18.405V12.835H378.72V11.605H384V12.835H382.06V18.405H380.66Z" fill="white"/>
</g>
<defs>
<filter id="filter0_d_13882_123" x="194.256" y="7.52002" width="95.5659" height="14.96" filterUnits="userSpaceOnUse" color-interpolation-filters="sRGB">
<feFlood flood-opacity="0" result="BackgroundImageFix"/>
<feColorMatrix in="SourceAlpha" type="matrix" values="0 0 0 0 0 0 0 0 0 0 0 0 0 0 0 0 0 0 127 0" result="hardAlpha"/>
<feOffset/>
<feGaussianBlur stdDeviation="2"/>
<feComposite in2="hardAlpha" operator="out"/>
<feColorMatrix type="matrix" values="0 0 0 0 0 0 0 0 0 0 0 0 0 0 0 0 0 0 0.1 0"/>
<feBlend mode="normal" in2="BackgroundImageFix" result="effect1_dropShadow_13882_123"/>
<feBlend mode="normal" in="SourceGraphic" in2="effect1_dropShadow_13882_123" result="shape"/>
</filter>
<filter id="filter1_d_13882_123" x="293.822" y="7.53503" width="94.1782" height="14.9301" filterUnits="userSpaceOnUse" color-interpolation-filters="sRGB">
<feFlood flood-opacity="0" result="BackgroundImageFix"/>
<feColorMatrix in="SourceAlpha" type="matrix" values="0 0 0 0 0 0 0 0 0 0 0 0 0 0 0 0 0 0 127 0" result="hardAlpha"/>
<feOffset/>
<feGaussianBlur stdDeviation="2"/>
<feComposite in2="hardAlpha" operator="out"/>
<feColorMatrix type="matrix" values="0 0 0 0 0 0 0 0 0 0 0 0 0 0 0 0 0 0 0.1 0"/>
<feBlend mode="normal" in2="BackgroundImageFix" result="effect1_dropShadow_13882_123"/>
<feBlend mode="normal" in="SourceGraphic" in2="effect1_dropShadow_13882_123" result="shape"/>
</filter>
</defs>
</svg>
