<svg width="360" height="34" viewBox="0 0 360 34" fill="none" xmlns="http://www.w3.org/2000/svg">
<rect width="360" height="34" fill="black" fill-opacity="0.5"/>
<g filter="url(#filter0_d_13826_127)">
<path d="M158.519 19V12.2H159.909C161.749 12.2 162.599 13.25 162.599 14.73C162.599 16.16 161.749 17.25 159.909 17.25H158.929V19H158.519ZM158.929 16.89H159.869C161.579 16.89 162.179 15.93 162.179 14.73C162.179 13.52 161.579 12.56 159.869 12.56H158.929V16.89ZM170.301 19.08C168.381 19.08 166.821 17.67 166.821 15.6C166.821 13.53 168.381 12.12 170.301 12.12C172.221 12.12 173.781 13.53 173.781 15.6C173.781 17.67 172.221 19.08 170.301 19.08ZM170.301 18.71C172.051 18.71 173.361 17.38 173.361 15.6C173.361 13.82 172.051 12.49 170.301 12.49C168.551 12.49 167.241 13.82 167.241 15.6C167.241 17.38 168.551 18.71 170.301 18.71ZM179.74 19.08L177.61 12.2H178.05L179.71 17.67C179.77 17.86 179.82 18.17 179.82 18.17C179.82 18.17 179.88 17.86 179.95 17.67L181.9 12.12H182.02L183.97 17.67C184.04 17.86 184.09 18.17 184.09 18.17C184.09 18.17 184.15 17.86 184.21 17.67L185.87 12.2H186.29L184.16 19.08H184.05L182.07 13.44C182 13.23 181.96 12.93 181.96 12.93C181.96 12.93 181.91 13.23 181.84 13.44L179.85 19.08H179.74ZM190.732 19V12.2H194.702V12.56H191.142V16.2H194.332V16.56H191.142V18.64H194.842V19H190.732ZM202.085 16.93L203.595 19H203.105L201.685 17.06C201.435 17.12 201.145 17.15 200.835 17.15H199.875V19H199.465V12.2H200.835C202.675 12.2 203.545 13.3 203.545 14.68C203.545 15.68 203.075 16.54 202.085 16.93ZM199.875 16.79H200.795C202.515 16.79 203.125 15.8 203.125 14.68C203.125 13.56 202.515 12.56 200.795 12.56H199.875V16.79ZM208.343 19V12.2H212.313V12.56H208.753V16.2H211.943V16.56H208.753V18.64H212.453V19H208.343ZM217.076 19V12.2H218.526C220.876 12.2 222.246 13.51 222.246 15.6C222.246 17.69 220.886 19 218.526 19H217.076ZM217.486 18.63H218.476C220.726 18.63 221.816 17.38 221.816 15.6C221.816 13.82 220.726 12.57 218.476 12.57H217.486V18.63ZM232.285 19V12.2H234.445C235.715 12.2 236.265 12.92 236.265 13.83C236.265 14.51 236.005 15.03 235.425 15.23C236.275 15.43 236.835 16.13 236.835 17.05C236.835 18.14 236.205 19 234.745 19H232.285ZM232.695 15.1H234.585C235.545 15.1 235.855 14.56 235.855 13.83C235.855 13.11 235.485 12.56 234.405 12.56H232.695V15.1ZM232.695 18.64H234.695C235.965 18.64 236.425 17.95 236.425 17.05C236.425 16.14 235.905 15.46 234.685 15.46H232.695V18.64ZM243.095 19V16.88L240.525 12.2H240.985L243.155 16.14C243.245 16.3 243.315 16.55 243.315 16.55C243.315 16.55 243.405 16.3 243.495 16.14L245.655 12.2H246.085L243.515 16.89V19H243.095Z" fill="white"/>
</g>
<g filter="url(#filter1_d_13826_127)">
<path d="M258.107 19V12.13H258.217L261.567 15.81L264.867 12.13H264.987V19H263.637V16.45C263.637 15.99 263.687 15.26 263.687 15.26C263.687 15.26 263.277 15.86 262.957 16.22L261.607 17.73H261.477L260.127 16.22C259.807 15.86 259.397 15.26 259.397 15.26C259.397 15.26 259.447 15.99 259.447 16.45V19H258.107ZM269.438 19V12.2H270.838V19H269.438ZM280.729 19.06L277.299 15.84C276.959 15.52 276.489 14.91 276.489 14.91C276.489 14.91 276.589 15.66 276.589 16.15V19H275.279V12.14H275.419L278.849 15.36C279.179 15.67 279.649 16.29 279.649 16.29C279.649 16.29 279.559 15.52 279.559 15.05V12.2H280.869V19.06H280.729ZM285.321 19V12.2H286.721V19H285.321ZM291.162 19V12.13H291.272L294.622 15.81L297.922 12.13H298.042V19H296.692V16.45C296.692 15.99 296.742 15.26 296.742 15.26C296.742 15.26 296.332 15.86 296.012 16.22L294.662 17.73H294.532L293.182 16.22C292.862 15.86 292.452 15.26 292.452 15.26C292.452 15.26 292.502 15.99 292.502 16.45V19H291.162ZM301.963 19L304.953 12.14H305.073L308.183 19H306.713L306.393 18.23H303.633L303.313 19H301.963ZM304.103 17.06H305.893L305.403 15.88C305.203 15.4 304.993 14.66 304.993 14.66C304.993 14.66 304.793 15.4 304.593 15.88L304.103 17.06ZM312.104 19V12.2H313.504V17.77H316.584V19H312.104ZM320.209 19L323.199 12.14H323.319L326.429 19H324.959L324.639 18.23H321.879L321.559 19H320.209ZM322.349 17.06H324.139L323.649 15.88C323.449 15.4 323.239 14.66 323.239 14.66C323.239 14.66 323.039 15.4 322.839 15.88L322.349 17.06ZM333.96 16.88L335.37 19H333.75L332.63 17.28C332.5 17.3 332.36 17.31 332.23 17.31H331.75V19H330.35V12.2H332.23C334.13 12.2 335.27 13.11 335.27 14.77C335.27 15.83 334.8 16.5 333.96 16.88ZM331.75 16.09H332.19C333.33 16.09 333.83 15.73 333.83 14.77C333.83 13.81 333.31 13.43 332.19 13.43H331.75V16.09ZM340.945 19V13.43H339.005V12.2H344.285V13.43H342.345V19H340.945Z" fill="white"/>
</g>
<defs>
<filter id="filter0_d_13826_127" x="154.519" y="8.12" width="95.5659" height="14.96" filterUnits="userSpaceOnUse" color-interpolation-filters="sRGB">
<feFlood flood-opacity="0" result="BackgroundImageFix"/>
<feColorMatrix in="SourceAlpha" type="matrix" values="0 0 0 0 0 0 0 0 0 0 0 0 0 0 0 0 0 0 127 0" result="hardAlpha"/>
<feOffset/>
<feGaussianBlur stdDeviation="2"/>
<feComposite in2="hardAlpha" operator="out"/>
<feColorMatrix type="matrix" values="0 0 0 0 0 0 0 0 0 0 0 0 0 0 0 0 0 0 0.1 0"/>
<feBlend mode="normal" in2="BackgroundImageFix" result="effect1_dropShadow_13826_127"/>
<feBlend mode="normal" in="SourceGraphic" in2="effect1_dropShadow_13826_127" result="shape"/>
</filter>
<filter id="filter1_d_13826_127" x="253" y="4" width="96" height="26" filterUnits="userSpaceOnUse" color-interpolation-filters="sRGB">
<feFlood flood-opacity="0" result="BackgroundImageFix"/>
<feColorMatrix in="SourceAlpha" type="matrix" values="0 0 0 0 0 0 0 0 0 0 0 0 0 0 0 0 0 0 127 0" result="hardAlpha"/>
<feOffset/>
<feGaussianBlur stdDeviation="2"/>
<feComposite in2="hardAlpha" operator="out"/>
<feColorMatrix type="matrix" values="0 0 0 0 0 0 0 0 0 0 0 0 0 0 0 0 0 0 0.1 0"/>
<feBlend mode="normal" in2="BackgroundImageFix" result="effect1_dropShadow_13826_127"/>
<feBlend mode="normal" in="SourceGraphic" in2="effect1_dropShadow_13826_127" result="shape"/>
</filter>
</defs>
</svg>
