<svg width="360" height="29" viewBox="0 0 360 29" fill="none" xmlns="http://www.w3.org/2000/svg">
<rect width="360" height="29" fill="black" fill-opacity="0.4"/>
<g filter="url(#filter0_d_13726_678)">
<path d="M225.678 14.5001C226.588 14.5001 227.138 14.9601 227.138 15.7201C227.138 16.4801 226.588 16.9401 225.678 16.9401H224.813V18.0001H224.313V14.5001H225.678ZM225.663 16.5051C226.303 16.5051 226.638 16.2201 226.638 15.7201C226.638 15.2201 226.303 14.9351 225.663 14.9351H224.813V16.5051H225.663ZM230.001 18.0401C228.926 18.0401 228.136 17.2751 228.136 16.2501C228.136 15.2251 228.926 14.4601 230.001 14.4601C231.066 14.4601 231.856 15.2201 231.856 16.2501C231.856 17.2801 231.066 18.0401 230.001 18.0401ZM230.001 17.5951C230.776 17.5951 231.356 17.0251 231.356 16.2501C231.356 15.4751 230.776 14.9051 230.001 14.9051C229.216 14.9051 228.636 15.4751 228.636 16.2501C228.636 17.0251 229.216 17.5951 230.001 17.5951ZM237.478 14.5001H237.953L236.783 18.0001H236.258L235.303 15.2051L234.348 18.0001H233.813L232.643 14.5001H233.158L234.103 17.3451L235.088 14.5001H235.548L236.513 17.3601L237.478 14.5001ZM239.565 17.5651H241.605V18.0001H239.065V14.5001H241.535V14.9351H239.565V16.0101H241.32V16.4351H239.565V17.5651ZM245.8 18.0001H245.255L244.5 16.9251C244.43 16.9301 244.355 16.9351 244.28 16.9351H243.415V18.0001H242.915V14.5001H244.28C245.19 14.5001 245.74 14.9601 245.74 15.7201C245.74 16.2601 245.46 16.6501 244.97 16.8251L245.8 18.0001ZM244.265 16.5101C244.905 16.5101 245.24 16.2201 245.24 15.7201C245.24 15.2201 244.905 14.9351 244.265 14.9351H243.415V16.5101H244.265ZM247.547 17.5651H249.587V18.0001H247.047V14.5001H249.517V14.9351H247.547V16.0101H249.302V16.4351H247.547V17.5651ZM250.897 18.0001V14.5001H252.372C253.497 14.5001 254.262 15.2101 254.262 16.2501C254.262 17.2901 253.497 18.0001 252.372 18.0001H250.897ZM251.397 17.5651H252.342C253.207 17.5651 253.762 17.0351 253.762 16.2501C253.762 15.4651 253.207 14.9351 252.342 14.9351H251.397V17.5651ZM259.726 16.1851C260.121 16.2951 260.381 16.5901 260.381 17.0551C260.381 17.6551 259.926 18.0001 259.041 18.0001H257.371V14.5001H258.941C259.746 14.5001 260.196 14.8401 260.196 15.4051C260.196 15.7851 260.001 16.0501 259.726 16.1851ZM258.896 14.9051H257.871V16.0251H258.896C259.406 16.0251 259.696 15.8351 259.696 15.4651C259.696 15.0951 259.406 14.9051 258.896 14.9051ZM259.021 17.5951C259.576 17.5951 259.876 17.4201 259.876 17.0151C259.876 16.6101 259.576 16.4301 259.021 16.4301H257.871V17.5951H259.021ZM264.312 14.5001L262.922 16.7901V18.0001H262.427V16.7801L261.037 14.5001H261.572L262.692 16.3451L263.817 14.5001H264.312Z" fill="white"/>
</g>
<g filter="url(#filter1_d_13726_678)">
<path d="M312.116 10.025L308.318 18.8722H309.695L310.191 17.6615H314.065L314.562 18.8722H316.002L312.192 10.025H312.116ZM310.701 16.4499L312.141 13.0217C312.141 13.0217 313.568 16.4499 313.556 16.4499H310.701Z" fill="white"/>
<path d="M318.564 10.2031H317.2V18.8722H322.385V17.6339H318.564V10.2031Z" fill="white"/>
<path d="M326.859 10.025L323.062 18.8722H324.442L324.935 17.6615H328.809L329.31 18.8722H330.75L326.936 10.025H326.859ZM325.445 16.4499L326.885 13.0217C326.885 13.0217 328.311 16.4499 328.299 16.4499H325.445Z" fill="white"/>
<path d="M337.834 13.5175C337.834 11.5166 336.521 10.203 334.136 10.203H331.921V18.8721H333.284V16.8069H334.136C334.345 16.8076 334.554 16.795 334.761 16.7692L336.239 18.8721H337.857L336.102 16.4122C337.234 15.8896 337.834 14.8561 337.834 13.5175ZM334.087 15.6346H333.284V11.4146H334.087C335.743 11.4146 336.432 12.2048 336.432 13.5175C336.432 14.8436 335.756 15.6346 334.087 15.6346Z" fill="white"/>
<path d="M338.489 10.2031V11.4147H341.063V18.8722H342.426V11.4147H345V10.2031H338.489Z" fill="white"/>
<path d="M284.421 10.2031H283.057V18.8722H284.421V10.2031Z" fill="white"/>
<path d="M291.993 15.9022L286.437 10.076H286.335V18.8722H287.609V13.1739L293.165 19.0001H293.267V10.2031H291.993V15.9022Z" fill="white"/>
<path d="M296.529 10.203H295.165V18.8721H296.529V10.203Z" fill="white"/>
<path d="M273.241 10.0693L272.294 18.8722H273.575L274.118 13.5117L276.662 17.48C276.669 17.4907 276.678 17.4995 276.689 17.5056C276.701 17.5117 276.713 17.5149 276.726 17.5149C276.738 17.5149 276.751 17.5117 276.762 17.5056C276.773 17.4995 276.782 17.4907 276.789 17.48L277.467 16.403L273.38 10.0367C273.372 10.023 273.36 10.0122 273.345 10.006C273.331 9.99973 273.314 9.99833 273.299 10.002C273.283 10.0056 273.269 10.0141 273.259 10.0262C273.248 10.0383 273.242 10.0534 273.241 10.0693Z" fill="white"/>
<path d="M280.134 10.0358L277.021 14.8854L277.663 15.8997C277.67 15.9104 277.679 15.9192 277.69 15.9253C277.701 15.9315 277.714 15.9347 277.726 15.9347C277.739 15.9347 277.751 15.9315 277.762 15.9253C277.773 15.9192 277.783 15.9104 277.789 15.8997L279.294 13.5526L279.874 18.8763H281.222L280.272 10.0693C280.271 10.0538 280.264 10.0391 280.254 10.0274C280.244 10.0157 280.23 10.0074 280.215 10.0037C280.2 10 280.184 10.0012 280.17 10.0069C280.155 10.0127 280.143 10.0228 280.134 10.0358Z" fill="white"/>
<path d="M306.174 10.0358L302.797 15.2943L299.419 10.0367C299.41 10.0236 299.398 10.0135 299.384 10.0077C299.369 10.002 299.354 10.0008 299.338 10.0043C299.323 10.0079 299.31 10.0161 299.299 10.0277C299.289 10.0393 299.283 10.0539 299.281 10.0693L298.335 18.8722H299.615L300.158 13.5117L302.702 17.48C302.709 17.4907 302.719 17.4995 302.73 17.5056C302.741 17.5117 302.753 17.5149 302.766 17.5149C302.779 17.5149 302.791 17.5117 302.802 17.5056C302.813 17.4995 302.823 17.4907 302.829 17.48L305.337 13.5501L305.917 18.8738H307.265L306.312 10.0693C306.31 10.0538 306.304 10.0392 306.294 10.0274C306.283 10.0157 306.27 10.0074 306.255 10.0037C306.24 10.0001 306.224 10.0012 306.209 10.0069C306.195 10.0127 306.182 10.0228 306.174 10.0358Z" fill="white"/>
</g>
<defs>
<filter id="filter0_d_13726_678" x="220.313" y="10.4601" width="47.998" height="11.58" filterUnits="userSpaceOnUse" color-interpolation-filters="sRGB">
<feFlood flood-opacity="0" result="BackgroundImageFix"/>
<feColorMatrix in="SourceAlpha" type="matrix" values="0 0 0 0 0 0 0 0 0 0 0 0 0 0 0 0 0 0 127 0" result="hardAlpha"/>
<feOffset/>
<feGaussianBlur stdDeviation="2"/>
<feComposite in2="hardAlpha" operator="out"/>
<feColorMatrix type="matrix" values="0 0 0 0 0 0 0 0 0 0 0 0 0 0 0 0 0 0 0.25 0"/>
<feBlend mode="normal" in2="BackgroundImageFix" result="effect1_dropShadow_13726_678"/>
<feBlend mode="normal" in="SourceGraphic" in2="effect1_dropShadow_13726_678" result="shape"/>
</filter>
<filter id="filter1_d_13726_678" x="268.294" y="5.99998" width="80.7061" height="17.0001" filterUnits="userSpaceOnUse" color-interpolation-filters="sRGB">
<feFlood flood-opacity="0" result="BackgroundImageFix"/>
<feColorMatrix in="SourceAlpha" type="matrix" values="0 0 0 0 0 0 0 0 0 0 0 0 0 0 0 0 0 0 127 0" result="hardAlpha"/>
<feOffset/>
<feGaussianBlur stdDeviation="2"/>
<feComposite in2="hardAlpha" operator="out"/>
<feColorMatrix type="matrix" values="0 0 0 0 0 0 0 0 0 0 0 0 0 0 0 0 0 0 0.25 0"/>
<feBlend mode="normal" in2="BackgroundImageFix" result="effect1_dropShadow_13726_678"/>
<feBlend mode="normal" in="SourceGraphic" in2="effect1_dropShadow_13726_678" result="shape"/>
</filter>
</defs>
</svg>
